<svg version="1.1" id="Layer_1" xmlns="http://www.w3.org/2000/svg" xmlns:xlink="http://www.w3.org/1999/xlink" x="0px" y="0px"
	 width="100%" viewBox="0 0 1080 1080" enable-background="new 0 0 1080 1080" xml:space="preserve">
<path fill="#FFFFFF" opacity="1.000000" stroke="none" 
	d="
M1009.000000,1081.000000 
	C672.666687,1081.000000 336.833344,1081.000000 1.000000,1081.000000 
	C1.000000,721.000000 1.000000,361.000000 1.000000,1.000000 
	C361.000000,1.000000 721.000000,1.000000 1081.000000,1.000000 
	C1081.000000,361.000000 1081.000000,721.000000 1081.000000,1081.000000 
	C1057.166626,1081.000000 1033.333374,1081.000000 1009.000000,1081.000000 
M309.571960,592.997253 
	C321.322327,597.175842 333.273621,592.426575 338.106689,581.657898 
	C343.674255,569.252686 338.734161,558.752563 323.096344,550.082703 
	C323.096344,536.556946 323.001068,522.912415 323.240967,509.273743 
	C323.265442,507.881531 325.016693,505.936707 326.448303,505.244690 
	C337.721802,499.795044 342.782257,488.893524 338.994141,477.645569 
	C335.303070,466.685760 324.322662,460.605743 312.731995,463.103790 
	C301.783234,465.463501 294.602844,475.527679 295.899780,487.295563 
	C296.251068,490.482788 295.283203,492.058624 292.692291,493.601135 
	C284.694275,498.362976 276.741211,503.216827 268.980286,508.351746 
	C266.169800,510.211334 264.381348,510.109650 261.578583,508.187653 
	C251.259583,501.111359 236.467819,504.782074 230.413223,515.581848 
	C225.407501,524.510742 226.902328,535.919800 233.972504,542.747131 
	C241.380081,549.900269 252.433121,551.087219 261.702606,545.843872 
	C263.003265,545.108154 265.135803,544.056885 265.988983,544.588074 
	C276.400085,551.069580 286.643921,557.819702 296.768188,564.394470 
	C293.731323,578.202087 297.749268,587.351135 309.571960,592.997253 
M426.958801,574.997131 
	C427.940491,573.163025 429.408112,571.433777 429.830322,569.478821 
	C435.484131,543.299561 440.997223,517.089844 446.520905,490.882599 
	C446.809479,489.513519 446.879089,488.098236 447.088898,486.393311 
	C442.396210,486.393311 438.245270,486.511993 434.105286,486.350128 
	C431.494537,486.248047 430.359528,487.023865 429.813477,489.799500 
	C427.373474,502.203217 424.647369,514.550842 421.999969,526.913452 
	C420.703613,532.967163 419.353546,539.009460 418.027740,545.056885 
	C416.121979,543.665466 415.430511,542.259338 414.858704,540.806213 
	C408.223358,523.944092 401.644318,507.059540 394.917206,490.234161 
	C394.330139,488.765778 392.863312,486.649506 391.699371,486.578949 
	C385.627777,486.210876 379.521942,486.407257 373.420776,486.407257 
	C367.199860,515.752441 361.128967,544.382874 355.073608,573.016602 
	C354.972809,573.493225 355.061005,574.009888 355.061005,574.757874 
	C360.518341,574.757874 365.954559,574.757874 371.669891,574.757874 
	C376.102875,554.031982 380.522552,533.368225 384.942261,512.704468 
	C386.846313,514.057556 387.561798,515.462891 388.131104,516.925232 
	C393.800171,531.487732 399.430450,546.065369 405.105499,560.625488 
	C406.913391,565.263916 407.598236,571.709106 411.018524,573.976624 
	C414.658936,576.390137 420.932922,574.831299 426.958801,574.997131 
M664.006531,574.617493 
	C683.762451,579.015747 700.251160,572.719971 709.292358,557.002075 
	C714.894287,547.263184 717.317200,536.580261 716.720825,525.390137 
	C715.976379,511.421875 708.419617,502.760132 695.402100,500.270813 
	C675.676575,496.498749 657.264404,506.632935 650.273682,525.567566 
	C648.279175,530.969910 646.943542,536.758667 646.282959,542.483032 
	C644.399719,558.802185 650.266357,569.385071 664.006531,574.617493 
M726.156006,575.007141 
	C730.100525,575.007141 734.045044,575.007141 738.129517,575.007141 
	C740.389221,564.486206 742.546753,554.441101 744.778015,544.052368 
	C746.509705,544.052368 747.977966,544.057312 749.446289,544.051636 
	C760.458191,544.009033 762.103516,545.581970 763.074341,556.396179 
	C763.621216,562.487793 764.482361,568.551270 765.211365,574.707092 
	C770.275024,574.707092 775.016113,574.707092 780.018982,574.707092 
	C779.110291,567.464050 778.173401,560.555542 777.396790,553.629089 
	C776.772156,548.058472 775.681641,542.767639 770.039978,539.133728 
	C772.330505,538.287292 774.016846,537.722961 775.657654,537.048096 
	C784.649109,533.349670 789.708557,523.686401 787.889954,513.740417 
	C786.510254,506.194733 779.846069,501.217255 769.918213,500.957031 
	C759.786560,500.691437 749.642517,500.898254 739.130005,500.898254 
	C734.057190,524.878906 728.989136,548.766602 724.024292,572.675659 
	C723.887878,573.332703 724.861450,574.220215 726.156006,575.007141 
M510.474762,508.173035 
	C510.948212,505.809082 511.421661,503.445129 511.956116,500.776642 
	C496.036835,500.776642 480.727539,500.709259 465.421844,500.911865 
	C464.268951,500.927124 462.510468,502.672943 462.120789,503.946838 
	C460.958649,507.746277 460.333435,511.710388 459.506897,515.612000 
	C455.346619,535.249573 451.189056,554.887695 446.973053,574.797119 
	C463.766083,574.797119 480.210297,574.797119 497.140594,574.797119 
	C497.904236,570.944275 498.680420,567.028381 499.577881,562.500488 
	C487.509674,562.500488 476.271454,562.500488 464.441162,562.500488 
	C465.496338,557.249084 466.730530,552.602966 467.291260,547.876892 
	C467.806519,543.534241 469.626923,542.094849 474.041595,542.299072 
	C482.168274,542.675049 490.324768,542.406372 498.805756,542.406372 
	C499.629822,538.408325 500.411987,534.613586 501.316864,530.223511 
	C490.944824,530.223511 481.341583,530.223511 471.221344,530.223511 
	C472.495331,524.194214 473.652069,518.719849 474.853363,513.034546 
	C485.370728,513.034546 495.515228,512.898193 505.652283,513.113770 
	C508.894684,513.182739 510.269318,512.092712 510.474762,508.173035 
M828.501160,500.775604 
	C825.501892,500.775574 822.502686,500.775543 819.503418,500.775543 
	C808.768433,500.775513 808.690674,500.758850 806.462708,511.152924 
	C801.937317,532.265625 797.504761,553.398193 792.976562,574.793884 
	C809.767090,574.793884 826.225464,574.793884 843.110962,574.793884 
	C843.899414,571.011169 844.699768,567.171387 845.650940,562.608032 
	C833.725159,562.608032 822.350769,562.608032 810.333862,562.608032 
	C811.592651,556.702209 812.939270,551.566650 813.707153,546.345947 
	C814.182251,543.115906 815.605896,542.294922 818.633423,542.350769 
	C827.267334,542.510132 835.906067,542.406799 844.834534,542.406799 
	C845.663391,538.326477 846.430176,534.551758 847.330750,530.118469 
	C836.856018,530.118469 827.279053,530.118469 817.220886,530.118469 
	C818.516907,524.068481 819.685120,518.614990 820.906738,512.912354 
	C832.672791,512.912354 843.955566,512.912354 855.471252,512.912354 
	C856.318481,508.781067 857.101868,504.960968 857.960083,500.775940 
	C848.130493,500.775940 838.815674,500.775940 828.501160,500.775604 
M575.886230,533.347473 
	C575.340881,535.779541 574.554199,538.185913 574.291382,540.648132 
	C573.061035,552.174194 574.024658,563.004639 584.212402,570.842712 
	C594.406433,578.685547 621.041992,579.174072 631.287231,562.939148 
	C632.846802,560.467773 634.190735,557.860352 635.835693,554.960999 
	C631.640564,552.752319 628.048645,550.861145 625.049133,549.281921 
	C621.136230,553.305115 618.157043,557.503540 614.174194,560.242126 
	C603.870972,567.326477 590.433472,562.492249 589.215393,551.357544 
	C588.063171,540.825134 590.268799,530.673218 596.334290,521.874756 
	C605.323181,508.835571 622.496277,509.392883 630.889465,523.118958 
	C634.882446,520.970459 638.900818,518.808289 642.834961,516.691467 
	C639.859558,506.509003 633.254517,501.074066 622.970032,500.007233 
	C599.571960,497.580078 583.180237,508.940613 575.886230,533.347473 
M527.281128,562.647888 
	C526.501282,566.633179 525.721436,570.618530 524.913269,574.748535 
	C530.048706,574.748535 534.641907,574.748535 539.437622,574.748535 
	C543.569031,555.397034 547.780273,536.274963 551.631165,517.080566 
	C552.328979,513.602539 553.724609,512.879333 556.872559,513.000977 
	C562.499756,513.218323 568.141418,513.062134 574.042297,513.062134 
	C574.852783,508.913971 575.601807,505.080688 576.407898,500.955322 
	C556.985229,500.955322 538.226074,500.955322 519.052979,500.955322 
	C518.257874,504.795258 517.461060,508.643799 516.546631,513.059937 
	C523.753418,513.059937 530.495056,513.059937 537.809143,513.059937 
	C534.297913,529.709717 530.910156,545.774292 527.281128,562.647888 
z"/>
<path fill="#1D6493" opacity="1.000000" stroke="none" 
	d="
M309.214966,592.854431 
	C297.749268,587.351135 293.731323,578.202087 296.768188,564.394470 
	C286.643921,557.819702 276.400085,551.069580 265.988983,544.588074 
	C265.135803,544.056885 263.003265,545.108154 261.702606,545.843872 
	C252.433121,551.087219 241.380081,549.900269 233.972504,542.747131 
	C226.902328,535.919800 225.407501,524.510742 230.413223,515.581848 
	C236.467819,504.782074 251.259583,501.111359 261.578583,508.187653 
	C264.381348,510.109650 266.169800,510.211334 268.980286,508.351746 
	C276.741211,503.216827 284.694275,498.362976 292.692291,493.601135 
	C295.283203,492.058624 296.251068,490.482788 295.899780,487.295563 
	C294.602844,475.527679 301.783234,465.463501 312.731995,463.103790 
	C324.322662,460.605743 335.303070,466.685760 338.994141,477.645569 
	C342.782257,488.893524 337.721802,499.795044 326.448303,505.244690 
	C325.016693,505.936707 323.265442,507.881531 323.240967,509.273743 
	C323.001068,522.912415 323.096344,536.556946 323.096344,550.082703 
	C338.734161,558.752563 343.674255,569.252686 338.106689,581.657898 
	C333.273621,592.426575 321.322327,597.175842 309.214966,592.854431 
M271.492371,524.165466 
	C271.460632,526.296814 271.131012,528.479370 271.485748,530.544373 
	C271.803741,532.395264 272.363312,534.872437 273.695709,535.774780 
	C283.468201,542.393127 293.462036,548.684753 303.169556,554.939880 
	C305.530579,553.751892 307.715607,552.876404 309.632263,551.598450 
	C310.670471,550.906189 311.924225,549.535034 311.936066,548.457581 
	C312.089905,534.476990 312.038025,520.494141 312.038025,506.774750 
	C308.368408,504.810303 305.046539,503.032013 301.677887,501.228699 
	C292.385590,507.087402 283.045959,512.859558 273.876648,518.890564 
	C272.597015,519.732300 272.154663,521.846924 271.492371,524.165466 
M310.169556,579.300537 
	C316.589691,586.273132 326.568878,581.760681 327.962128,574.267395 
	C328.809906,569.708008 326.554840,565.092346 322.357056,563.118652 
	C317.961182,561.051819 313.911896,561.731750 310.470367,565.176331 
	C306.735504,568.914673 306.533264,573.358093 310.169556,579.300537 
M307.678802,486.788574 
	C311.083130,495.255585 319.761688,497.807587 325.277313,491.963562 
	C328.544769,488.501617 329.237701,483.393616 326.725281,479.604767 
	C324.135162,475.698608 320.467163,473.608917 315.701050,474.560028 
	C310.666870,475.564636 307.655273,479.999756 307.678802,486.788574 
M239.480820,526.654724 
	C240.644089,535.416565 248.404770,539.942688 255.034149,535.725525 
	C258.999481,533.203064 260.891296,528.333923 259.584900,524.012939 
	C258.205017,519.448853 254.250687,516.556702 249.501465,516.638123 
	C244.137878,516.730042 241.006912,519.644348 239.480820,526.654724 
z"/>
<path fill="#18669A" opacity="1.000000" stroke="none" 
	d="
M426.507935,575.002014 
	C420.932922,574.831299 414.658936,576.390137 411.018524,573.976624 
	C407.598236,571.709106 406.913391,565.263916 405.105499,560.625488 
	C399.430450,546.065369 393.800171,531.487732 388.131104,516.925232 
	C387.561798,515.462891 386.846313,514.057556 384.942261,512.704468 
	C380.522552,533.368225 376.102875,554.031982 371.669891,574.757874 
	C365.954559,574.757874 360.518341,574.757874 355.061005,574.757874 
	C355.061005,574.009888 354.972809,573.493225 355.073608,573.016602 
	C361.128967,544.382874 367.199860,515.752441 373.420776,486.407257 
	C379.521942,486.407257 385.627777,486.210876 391.699371,486.578949 
	C392.863312,486.649506 394.330139,488.765778 394.917206,490.234161 
	C401.644318,507.059540 408.223358,523.944092 414.858704,540.806213 
	C415.430511,542.259338 416.121979,543.665466 418.027740,545.056885 
	C419.353546,539.009460 420.703613,532.967163 421.999969,526.913452 
	C424.647369,514.550842 427.373474,502.203217 429.813477,489.799500 
	C430.359528,487.023865 431.494537,486.248047 434.105286,486.350128 
	C438.245270,486.511993 442.396210,486.393311 447.088898,486.393311 
	C446.879089,488.098236 446.809479,489.513519 446.520905,490.882599 
	C440.997223,517.089844 435.484131,543.299561 429.830322,569.478821 
	C429.408112,571.433777 427.940491,573.163025 426.507935,575.002014 
z"/>
<path fill="#18669A" opacity="1.000000" stroke="none" 
	d="
M663.636719,574.463562 
	C650.266357,569.385071 644.399719,558.802185 646.282959,542.483032 
	C646.943542,536.758667 648.279175,530.969910 650.273682,525.567566 
	C657.264404,506.632935 675.676575,496.498749 695.402100,500.270813 
	C708.419617,502.760132 715.976379,511.421875 716.720825,525.390137 
	C717.317200,536.580261 714.894287,547.263184 709.292358,557.002075 
	C700.251160,572.719971 683.762451,579.015747 663.636719,574.463562 
M699.505005,542.834167 
	C700.271851,537.438232 701.807617,532.017517 701.634827,526.651855 
	C701.336853,517.398254 695.836731,512.413574 687.063843,512.411560 
	C679.265137,512.409851 672.717224,515.338196 668.357178,521.971558 
	C662.804443,530.419434 660.395630,539.862061 661.116089,549.918457 
	C661.727539,558.451721 667.016113,563.054260 675.576843,563.182556 
	C687.257385,563.357544 694.700745,557.187500 699.505005,542.834167 
z"/>
<path fill="#18669A" opacity="1.000000" stroke="none" 
	d="
M725.736694,575.003662 
	C724.861450,574.220215 723.887878,573.332703 724.024292,572.675659 
	C728.989136,548.766602 734.057190,524.878906 739.130005,500.898254 
	C749.642517,500.898254 759.786560,500.691437 769.918213,500.957031 
	C779.846069,501.217255 786.510254,506.194733 787.889954,513.740417 
	C789.708557,523.686401 784.649109,533.349670 775.657654,537.048096 
	C774.016846,537.722961 772.330505,538.287292 770.039978,539.133728 
	C775.681641,542.767639 776.772156,548.058472 777.396790,553.629089 
	C778.173401,560.555542 779.110291,567.464050 780.018982,574.707092 
	C775.016113,574.707092 770.275024,574.707092 765.211365,574.707092 
	C764.482361,568.551270 763.621216,562.487793 763.074341,556.396179 
	C762.103516,545.581970 760.458191,544.009033 749.446289,544.051636 
	C747.977966,544.057312 746.509705,544.052368 744.778015,544.052368 
	C742.546753,554.441101 740.389221,564.486206 738.129517,575.007141 
	C734.045044,575.007141 730.100525,575.007141 725.736694,575.003662 
M750.452148,516.990051 
	C749.458252,521.926208 748.464417,526.862305 747.416382,532.067200 
	C753.440186,532.067200 758.747559,532.419739 763.986938,531.973877 
	C769.921143,531.468872 773.934021,525.827026 773.544128,519.465454 
	C773.250305,514.671387 770.231384,512.506348 763.465820,512.333435 
	C760.646851,512.261353 757.805664,512.522217 755.008728,512.263306 
	C751.920105,511.977417 750.779968,513.391479 750.452148,516.990051 
z"/>
<path fill="#18669A" opacity="1.000000" stroke="none" 
	d="
M510.358582,508.576477 
	C510.269318,512.092712 508.894684,513.182739 505.652283,513.113770 
	C495.515228,512.898193 485.370728,513.034546 474.853363,513.034546 
	C473.652069,518.719849 472.495331,524.194214 471.221344,530.223511 
	C481.341583,530.223511 490.944824,530.223511 501.316864,530.223511 
	C500.411987,534.613586 499.629822,538.408325 498.805756,542.406372 
	C490.324768,542.406372 482.168274,542.675049 474.041595,542.299072 
	C469.626923,542.094849 467.806519,543.534241 467.291260,547.876892 
	C466.730530,552.602966 465.496338,557.249084 464.441162,562.500488 
	C476.271454,562.500488 487.509674,562.500488 499.577881,562.500488 
	C498.680420,567.028381 497.904236,570.944275 497.140594,574.797119 
	C480.210297,574.797119 463.766083,574.797119 446.973053,574.797119 
	C451.189056,554.887695 455.346619,535.249573 459.506897,515.612000 
	C460.333435,511.710388 460.958649,507.746277 462.120789,503.946838 
	C462.510468,502.672943 464.268951,500.927124 465.421844,500.911865 
	C480.727539,500.709259 496.036835,500.776642 511.956116,500.776642 
	C511.421661,503.445129 510.948212,505.809082 510.358582,508.576477 
z"/>
<path fill="#18669A" opacity="1.000000" stroke="none" 
	d="
M829.000977,500.775757 
	C838.815674,500.775940 848.130493,500.775940 857.960083,500.775940 
	C857.101868,504.960968 856.318481,508.781067 855.471252,512.912354 
	C843.955566,512.912354 832.672791,512.912354 820.906738,512.912354 
	C819.685120,518.614990 818.516907,524.068481 817.220886,530.118469 
	C827.279053,530.118469 836.856018,530.118469 847.330750,530.118469 
	C846.430176,534.551758 845.663391,538.326477 844.834534,542.406799 
	C835.906067,542.406799 827.267334,542.510132 818.633423,542.350769 
	C815.605896,542.294922 814.182251,543.115906 813.707153,546.345947 
	C812.939270,551.566650 811.592651,556.702209 810.333862,562.608032 
	C822.350769,562.608032 833.725159,562.608032 845.650940,562.608032 
	C844.699768,567.171387 843.899414,571.011169 843.110962,574.793884 
	C826.225464,574.793884 809.767090,574.793884 792.976562,574.793884 
	C797.504761,553.398193 801.937317,532.265625 806.462708,511.152924 
	C808.690674,500.758850 808.768433,500.775513 819.503418,500.775543 
	C822.502686,500.775543 825.501892,500.775574 829.000977,500.775757 
z"/>
<path fill="#18669A" opacity="1.000000" stroke="none" 
	d="
M575.956665,532.944702 
	C583.180237,508.940613 599.571960,497.580078 622.970032,500.007233 
	C633.254517,501.074066 639.859558,506.509003 642.834961,516.691467 
	C638.900818,518.808289 634.882446,520.970459 630.889465,523.118958 
	C622.496277,509.392883 605.323181,508.835571 596.334290,521.874756 
	C590.268799,530.673218 588.063171,540.825134 589.215393,551.357544 
	C590.433472,562.492249 603.870972,567.326477 614.174194,560.242126 
	C618.157043,557.503540 621.136230,553.305115 625.049133,549.281921 
	C628.048645,550.861145 631.640564,552.752319 635.835693,554.960999 
	C634.190735,557.860352 632.846802,560.467773 631.287231,562.939148 
	C621.041992,579.174072 594.406433,578.685547 584.212402,570.842712 
	C574.024658,563.004639 573.061035,552.174194 574.291382,540.648132 
	C574.554199,538.185913 575.340881,535.779541 575.956665,532.944702 
z"/>
<path fill="#18669A" opacity="1.000000" stroke="none" 
	d="
M527.401733,562.243347 
	C530.910156,545.774292 534.297913,529.709717 537.809143,513.059937 
	C530.495056,513.059937 523.753418,513.059937 516.546631,513.059937 
	C517.461060,508.643799 518.257874,504.795258 519.052979,500.955322 
	C538.226074,500.955322 556.985229,500.955322 576.407898,500.955322 
	C575.601807,505.080688 574.852783,508.913971 574.042297,513.062134 
	C568.141418,513.062134 562.499756,513.218323 556.872559,513.000977 
	C553.724609,512.879333 552.328979,513.602539 551.631165,517.080566 
	C547.780273,536.274963 543.569031,555.397034 539.437622,574.748535 
	C534.641907,574.748535 530.048706,574.748535 524.913269,574.748535 
	C525.721436,570.618530 526.501282,566.633179 527.401733,562.243347 
z"/>
<path fill="#FBFDFC" opacity="1.000000" stroke="none" 
	d="
M271.408539,523.768921 
	C272.154663,521.846924 272.597015,519.732300 273.876648,518.890564 
	C283.045959,512.859558 292.385590,507.087402 301.677887,501.228699 
	C305.046539,503.032013 308.368408,504.810303 312.038025,506.774750 
	C312.038025,520.494141 312.089905,534.476990 311.936066,548.457581 
	C311.924225,549.535034 310.670471,550.906189 309.632263,551.598450 
	C307.715607,552.876404 305.530579,553.751892 303.169556,554.939880 
	C293.462036,548.684753 283.468201,542.393127 273.695709,535.774780 
	C272.363312,534.872437 271.803741,532.395264 271.485748,530.544373 
	C271.131012,528.479370 271.460632,526.296814 271.408539,523.768921 
z"/>
<path fill="#FBFDFC" opacity="1.000000" stroke="none" 
	d="
M309.933960,579.011353 
	C306.533264,573.358093 306.735504,568.914673 310.470367,565.176331 
	C313.911896,561.731750 317.961182,561.051819 322.357056,563.118652 
	C326.554840,565.092346 328.809906,569.708008 327.962128,574.267395 
	C326.568878,581.760681 316.589691,586.273132 309.933960,579.011353 
z"/>
<path fill="#FBFDFC" opacity="1.000000" stroke="none" 
	d="
M307.593811,486.421021 
	C307.655273,479.999756 310.666870,475.564636 315.701050,474.560028 
	C320.467163,473.608917 324.135162,475.698608 326.725281,479.604767 
	C329.237701,483.393616 328.544769,488.501617 325.277313,491.963562 
	C319.761688,497.807587 311.083130,495.255585 307.593811,486.421021 
z"/>
<path fill="#FBFDFC" opacity="1.000000" stroke="none" 
	d="
M239.517517,526.275879 
	C241.006912,519.644348 244.137878,516.730042 249.501465,516.638123 
	C254.250687,516.556702 258.205017,519.448853 259.584900,524.012939 
	C260.891296,528.333923 258.999481,533.203064 255.034149,535.725525 
	C248.404770,539.942688 240.644089,535.416565 239.517517,526.275879 
z"/>
<path fill="#FBFDFC" opacity="1.000000" stroke="none" 
	d="
M699.362732,543.208740 
	C694.700745,557.187500 687.257385,563.357544 675.576843,563.182556 
	C667.016113,563.054260 661.727539,558.451721 661.116089,549.918457 
	C660.395630,539.862061 662.804443,530.419434 668.357178,521.971558 
	C672.717224,515.338196 679.265137,512.409851 687.063843,512.411560 
	C695.836731,512.413574 701.336853,517.398254 701.634827,526.651855 
	C701.807617,532.017517 700.271851,537.438232 699.362732,543.208740 
z"/>
<path fill="#FBFDFC" opacity="1.000000" stroke="none" 
	d="
M750.576782,516.589233 
	C750.779968,513.391479 751.920105,511.977417 755.008728,512.263306 
	C757.805664,512.522217 760.646851,512.261353 763.465820,512.333435 
	C770.231384,512.506348 773.250305,514.671387 773.544128,519.465454 
	C773.934021,525.827026 769.921143,531.468872 763.986938,531.973877 
	C758.747559,532.419739 753.440186,532.067200 747.416382,532.067200 
	C748.464417,526.862305 749.458252,521.926208 750.576782,516.589233 
z"/>
</svg>